<?xml version="1.0" encoding="UTF-8"?>
<svg version="1.1" class="highcharts-root" style="font-family:&quot;Lucida Grande&quot;, &quot;Lucida Sans Unicode&quot;, Arial, Helvetica, sans-serif;font-size:12px;" xmlns="http://www.w3.org/2000/svg" width="607" height="405" viewBox="0 0 607 405"><desc>Created with Highcharts 8.2.0</desc><defs><clipPath id="highcharts-72n89b0-1-"><rect x="0" y="0" width="519" height="339" fill="none"></rect></clipPath></defs><rect fill="#ffffff" class="highcharts-background" x="0" y="0" width="607" height="405" rx="0" ry="0"></rect><rect fill="none" class="highcharts-plot-background" x="78" y="10" width="519" height="339"></rect><g class="highcharts-grid highcharts-xaxis-grid" data-z-index="1"><path fill="none" data-z-index="1" class="highcharts-grid-line" d="M 155.5 10 L 155.5 349" opacity="1"></path><path fill="none" data-z-index="1" class="highcharts-grid-line" d="M 241.5 10 L 241.5 349" opacity="1"></path><path fill="none" data-z-index="1" class="highcharts-grid-line" d="M 328.5 10 L 328.5 349" opacity="1"></path><path fill="none" data-z-index="1" class="highcharts-grid-line" d="M 414.5 10 L 414.5 349" opacity="1"></path><path fill="none" data-z-index="1" class="highcharts-grid-line" d="M 501.5 10 L 501.5 349" opacity="1"></path><path fill="none" data-z-index="1" class="highcharts-grid-line" d="M 587.5 10 L 587.5 349" opacity="1"></path></g><g class="highcharts-grid highcharts-yaxis-grid" data-z-index="1"><path fill="none" stroke="#e6e6e6" stroke-width="1" data-z-index="1" class="highcharts-grid-line" d="M 78 349.5 L 597 349.5" opacity="1"></path><path fill="none" stroke="#e6e6e6" stroke-width="1" data-z-index="1" class="highcharts-grid-line" d="M 78 275.5 L 597 275.5" opacity="1"></path><path fill="none" stroke="#e6e6e6" stroke-width="1" data-z-index="1" class="highcharts-grid-line" d="M 78 202.5 L 597 202.5" opacity="1"></path><path fill="none" stroke="#e6e6e6" stroke-width="1" data-z-index="1" class="highcharts-grid-line" d="M 78 128.5 L 597 128.5" opacity="1"></path><path fill="none" stroke="#e6e6e6" stroke-width="1" data-z-index="1" class="highcharts-grid-line" d="M 78 54.5 L 597 54.5" opacity="1"></path></g><rect fill="none" class="highcharts-plot-border" data-z-index="1" x="78" y="10" width="519" height="339"></rect><g class="highcharts-axis highcharts-xaxis" data-z-index="2"><path fill="none" class="highcharts-tick" stroke="#ccd6eb" stroke-width="1" d="M 155.5 349 L 155.5 359" opacity="1"></path><path fill="none" class="highcharts-tick" stroke="#ccd6eb" stroke-width="1" d="M 241.5 349 L 241.5 359" opacity="1"></path><path fill="none" class="highcharts-tick" stroke="#ccd6eb" stroke-width="1" d="M 328.5 349 L 328.5 359" opacity="1"></path><path fill="none" class="highcharts-tick" stroke="#ccd6eb" stroke-width="1" d="M 414.5 349 L 414.5 359" opacity="1"></path><path fill="none" class="highcharts-tick" stroke="#ccd6eb" stroke-width="1" d="M 501.5 349 L 501.5 359" opacity="1"></path><path fill="none" class="highcharts-tick" stroke="#ccd6eb" stroke-width="1" d="M 587.5 349 L 587.5 359" opacity="1"></path><text x="337.5" data-z-index="7" text-anchor="middle" transform="translate(0,0)" class="highcharts-axis-title" style="color:#666666;fill:#666666;" y="387.5"><tspan>Years</tspan></text><path fill="none" class="highcharts-axis-line" stroke="#ccd6eb" stroke-width="1" data-z-index="7" d="M 78 349.5 L 597 349.5"></path></g><g class="highcharts-axis highcharts-yaxis" data-z-index="2"><text x="24.71666717529297" data-z-index="7" text-anchor="middle" transform="translate(0,0) rotate(270 24.71666717529297 179.5)" class="highcharts-axis-title" style="color:#666666;fill:#666666;" y="179.5"><tspan>Savings</tspan></text><path fill="none" class="highcharts-axis-line" data-z-index="7" d="M 78 10 L 78 349"></path></g><g class="highcharts-series-group" data-z-index="3"><g class="highcharts-series highcharts-series-0 highcharts-column-series highcharts-color-0 highcharts-tracker" data-z-index="0.1" opacity="1" transform="translate(78,10) scale(1 1)" clip-path="url(#highcharts-72n89b0-1-)"><rect x="-16" y="340" width="14" height="0" fill="#A6BEFC" opacity="1" class="highcharts-point highcharts-color-0"></rect><rect x="2" y="332" width="14" height="0" fill="#A6BEFC" opacity="1" class="highcharts-point highcharts-color-0"></rect><rect x="19" y="327" width="14" height="0" fill="#A6BEFC" opacity="1" class="highcharts-point highcharts-color-0"></rect><rect x="36" y="321" width="14" height="2" fill="#A6BEFC" opacity="1" class="highcharts-point highcharts-color-0"></rect><rect x="54" y="316" width="14" height="3" fill="#A6BEFC" opacity="1" class="highcharts-point highcharts-color-0"></rect><rect x="71" y="310" width="14" height="4" fill="#A6BEFC" opacity="1" class="highcharts-point highcharts-color-0"></rect><rect x="88" y="304" width="14" height="6" fill="#A6BEFC" opacity="1" class="highcharts-point highcharts-color-0"></rect><rect x="106" y="298" width="14" height="7" fill="#A6BEFC" opacity="1" class="highcharts-point highcharts-color-0"></rect><rect x="123" y="291" width="14" height="10" fill="#A6BEFC" opacity="1" class="highcharts-point highcharts-color-0"></rect><rect x="140" y="284" width="14" height="13" fill="#A6BEFC" opacity="1" class="highcharts-point highcharts-color-0"></rect><rect x="157" y="277" width="14" height="15" fill="#A6BEFC" opacity="1" class="highcharts-point highcharts-color-0"></rect><rect x="175" y="269" width="14" height="19" fill="#A6BEFC" opacity="1" class="highcharts-point highcharts-color-0"></rect><rect x="192" y="261" width="14" height="22" fill="#A6BEFC" opacity="1" class="highcharts-point highcharts-color-0"></rect><rect x="209" y="252" width="14" height="27" fill="#A6BEFC" opacity="1" class="highcharts-point highcharts-color-0"></rect><rect x="227" y="243" width="14" height="31" fill="#A6BEFC" opacity="1" class="highcharts-point highcharts-color-0"></rect><rect x="244" y="234" width="14" height="36" fill="#A6BEFC" opacity="1" class="highcharts-point highcharts-color-0"></rect><rect x="261" y="224" width="14" height="42" fill="#A6BEFC" opacity="1" class="highcharts-point highcharts-color-0"></rect><rect x="279" y="213" width="14" height="48" fill="#A6BEFC" opacity="1" class="highcharts-point highcharts-color-0"></rect><rect x="296" y="202" width="14" height="55" fill="#A6BEFC" opacity="1" class="highcharts-point highcharts-color-0"></rect><rect x="313" y="191" width="14" height="61" fill="#A6BEFC" opacity="1" class="highcharts-point highcharts-color-0"></rect><rect x="330" y="179" width="14" height="69" fill="#A6BEFC" opacity="1" class="highcharts-point highcharts-color-0"></rect><rect x="348" y="166" width="14" height="78" fill="#A6BEFC" opacity="1" class="highcharts-point highcharts-color-0"></rect><rect x="365" y="152" width="14" height="87" fill="#A6BEFC" opacity="1" class="highcharts-point highcharts-color-0"></rect><rect x="382" y="138" width="14" height="97" fill="#A6BEFC" opacity="1" class="highcharts-point highcharts-color-0"></rect><rect x="400" y="124" width="14" height="106" fill="rgb(166,190,252)" opacity="1" class="highcharts-point highcharts-color-0"></rect><rect x="417" y="108" width="14" height="118" fill="rgb(166,190,252)" opacity="1" class="highcharts-point highcharts-color-0"></rect><rect x="434" y="92" width="14" height="129" fill="rgb(166,190,252)" opacity="1" class="highcharts-point highcharts-color-0"></rect><rect x="452" y="74" width="14" height="143" fill="rgb(166,190,252)" opacity="1" class="highcharts-point highcharts-color-0"></rect><rect x="469" y="56" width="14" height="157" fill="rgb(166,190,252)" opacity="1" class="highcharts-point highcharts-color-0"></rect><rect x="486" y="37" width="14" height="171" fill="rgb(166,190,252)" opacity="1" class="highcharts-point highcharts-color-0"></rect><rect x="503" y="17" width="14" height="187" fill="rgb(166,190,252)" opacity="1" class="highcharts-point highcharts-color-0"></rect></g><g class="highcharts-markers highcharts-series-0 highcharts-column-series highcharts-color-0" data-z-index="0.1" opacity="1" transform="translate(78,10) scale(1 1)" clip-path="none"></g><g class="highcharts-series highcharts-series-1 highcharts-column-series highcharts-color-1 highcharts-tracker" data-z-index="0.1" opacity="1" transform="translate(78,10) scale(1 1)" clip-path="url(#highcharts-72n89b0-1-)"><rect x="-16" y="340" width="14" height="0" fill="#4C7DF8" opacity="1" class="highcharts-point highcharts-color-1"></rect><rect x="2" y="332" width="14" height="4" fill="#4C7DF8" opacity="1" class="highcharts-point highcharts-color-1"></rect><rect x="19" y="327" width="14" height="9" fill="#4C7DF8" opacity="1" class="highcharts-point highcharts-color-1"></rect><rect x="36" y="323" width="14" height="13" fill="#4C7DF8" opacity="1" class="highcharts-point highcharts-color-1"></rect><rect x="54" y="319" width="14" height="17" fill="#4C7DF8" opacity="1" class="highcharts-point highcharts-color-1"></rect><rect x="71" y="314" width="14" height="22" fill="#4C7DF8" opacity="1" class="highcharts-point highcharts-color-1"></rect><rect x="88" y="310" width="14" height="26" fill="#4C7DF8" opacity="1" class="highcharts-point highcharts-color-1"></rect><rect x="106" y="305" width="14" height="31" fill="#4C7DF8" opacity="1" class="highcharts-point highcharts-color-1"></rect><rect x="123" y="301" width="14" height="35" fill="#4C7DF8" opacity="1" class="highcharts-point highcharts-color-1"></rect><rect x="140" y="297" width="14" height="39" fill="#4C7DF8" opacity="1" class="highcharts-point highcharts-color-1"></rect><rect x="157" y="292" width="14" height="44" fill="#4C7DF8" opacity="1" class="highcharts-point highcharts-color-1"></rect><rect x="175" y="288" width="14" height="48" fill="#4C7DF8" opacity="1" class="highcharts-point highcharts-color-1"></rect><rect x="192" y="283" width="14" height="53" fill="#4C7DF8" opacity="1" class="highcharts-point highcharts-color-1"></rect><rect x="209" y="279" width="14" height="57" fill="#4C7DF8" opacity="1" class="highcharts-point highcharts-color-1"></rect><rect x="227" y="274" width="14" height="62" fill="#4C7DF8" opacity="1" class="highcharts-point highcharts-color-1"></rect><rect x="244" y="270" width="14" height="66" fill="#4C7DF8" opacity="1" class="highcharts-point highcharts-color-1"></rect><rect x="261" y="266" width="14" height="70" fill="#4C7DF8" opacity="1" class="highcharts-point highcharts-color-1"></rect><rect x="279" y="261" width="14" height="75" fill="#4C7DF8" opacity="1" class="highcharts-point highcharts-color-1"></rect><rect x="296" y="257" width="14" height="79" fill="#4C7DF8" opacity="1" class="highcharts-point highcharts-color-1"></rect><rect x="313" y="252" width="14" height="84" fill="#4C7DF8" opacity="1" class="highcharts-point highcharts-color-1"></rect><rect x="330" y="248" width="14" height="88" fill="#4C7DF8" opacity="1" class="highcharts-point highcharts-color-1"></rect><rect x="348" y="244" width="14" height="92" fill="#4C7DF8" opacity="1" class="highcharts-point highcharts-color-1"></rect><rect x="365" y="239" width="14" height="97" fill="#4C7DF8" opacity="1" class="highcharts-point highcharts-color-1"></rect><rect x="382" y="235" width="14" height="101" fill="#4C7DF8" opacity="1" class="highcharts-point highcharts-color-1"></rect><rect x="400" y="230" width="14" height="106" fill="rgb(76,125,248)" opacity="1" class="highcharts-point highcharts-color-1"></rect><rect x="417" y="226" width="14" height="110" fill="rgb(76,125,248)" opacity="1" class="highcharts-point highcharts-color-1"></rect><rect x="434" y="221" width="14" height="115" fill="rgb(76,125,248)" opacity="1" class="highcharts-point highcharts-color-1"></rect><rect x="452" y="217" width="14" height="119" fill="rgb(76,125,248)" opacity="1" class="highcharts-point highcharts-color-1"></rect><rect x="469" y="213" width="14" height="123" fill="rgb(76,125,248)" opacity="1" class="highcharts-point highcharts-color-1"></rect><rect x="486" y="208" width="14" height="128" fill="rgb(76,125,248)" opacity="1" class="highcharts-point highcharts-color-1"></rect><rect x="503" y="204" width="14" height="132" fill="rgb(76,125,248)" opacity="1" class="highcharts-point highcharts-color-1"></rect></g><g class="highcharts-markers highcharts-series-1 highcharts-column-series highcharts-color-1" data-z-index="0.1" opacity="1" transform="translate(78,10) scale(1 1)" clip-path="none"></g><g class="highcharts-series highcharts-series-2 highcharts-column-series highcharts-color-2 highcharts-tracker" data-z-index="0.1" opacity="1" transform="translate(78,10) scale(1 1)" clip-path="url(#highcharts-72n89b0-1-)"><rect x="-16" y="340" width="14" height="0" fill="#0146F5" opacity="1" class="highcharts-point highcharts-color-2"></rect><rect x="2" y="336" width="14" height="4" fill="#0146F5" opacity="1" class="highcharts-point highcharts-color-2"></rect><rect x="19" y="336" width="14" height="4" fill="#0146F5" opacity="1" class="highcharts-point highcharts-color-2"></rect><rect x="36" y="336" width="14" height="4" fill="#0146F5" opacity="1" class="highcharts-point highcharts-color-2"></rect><rect x="54" y="336" width="14" height="4" fill="#0146F5" opacity="1" class="highcharts-point highcharts-color-2"></rect><rect x="71" y="336" width="14" height="4" fill="#0146F5" opacity="1" class="highcharts-point highcharts-color-2"></rect><rect x="88" y="336" width="14" height="4" fill="#0146F5" opacity="1" class="highcharts-point highcharts-color-2"></rect><rect x="106" y="336" width="14" height="4" fill="#0146F5" opacity="1" class="highcharts-point highcharts-color-2"></rect><rect x="123" y="336" width="14" height="4" fill="#0146F5" opacity="1" class="highcharts-point highcharts-color-2"></rect><rect x="140" y="336" width="14" height="4" fill="#0146F5" opacity="1" class="highcharts-point highcharts-color-2"></rect><rect x="157" y="336" width="14" height="4" fill="#0146F5" opacity="1" class="highcharts-point highcharts-color-2"></rect><rect x="175" y="336" width="14" height="4" fill="#0146F5" opacity="1" class="highcharts-point highcharts-color-2"></rect><rect x="192" y="336" width="14" height="4" fill="#0146F5" opacity="1" class="highcharts-point highcharts-color-2"></rect><rect x="209" y="336" width="14" height="4" fill="#0146F5" opacity="1" class="highcharts-point highcharts-color-2"></rect><rect x="227" y="336" width="14" height="4" fill="#0146F5" opacity="1" class="highcharts-point highcharts-color-2"></rect><rect x="244" y="336" width="14" height="4" fill="#0146F5" opacity="1" class="highcharts-point highcharts-color-2"></rect><rect x="261" y="336" width="14" height="4" fill="#0146F5" opacity="1" class="highcharts-point highcharts-color-2"></rect><rect x="279" y="336" width="14" height="4" fill="#0146F5" opacity="1" class="highcharts-point highcharts-color-2"></rect><rect x="296" y="336" width="14" height="4" fill="#0146F5" opacity="1" class="highcharts-point highcharts-color-2"></rect><rect x="313" y="336" width="14" height="4" fill="#0146F5" opacity="1" class="highcharts-point highcharts-color-2"></rect><rect x="330" y="336" width="14" height="4" fill="#0146F5" opacity="1" class="highcharts-point highcharts-color-2"></rect><rect x="348" y="336" width="14" height="4" fill="#0146F5" opacity="1" class="highcharts-point highcharts-color-2"></rect><rect x="365" y="336" width="14" height="4" fill="#0146F5" opacity="1" class="highcharts-point highcharts-color-2"></rect><rect x="382" y="336" width="14" height="4" fill="#0146F5" opacity="1" class="highcharts-point highcharts-color-2"></rect><rect x="400" y="336" width="14" height="4" fill="rgb(1,70,245)" opacity="1" class="highcharts-point highcharts-color-2"></rect><rect x="417" y="336" width="14" height="4" fill="rgb(1,70,245)" opacity="1" class="highcharts-point highcharts-color-2"></rect><rect x="434" y="336" width="14" height="4" fill="rgb(1,70,245)" opacity="1" class="highcharts-point highcharts-color-2"></rect><rect x="452" y="336" width="14" height="4" fill="rgb(1,70,245)" opacity="1" class="highcharts-point highcharts-color-2"></rect><rect x="469" y="336" width="14" height="4" fill="rgb(1,70,245)" opacity="1" class="highcharts-point highcharts-color-2"></rect><rect x="486" y="336" width="14" height="4" fill="rgb(1,70,245)" opacity="1" class="highcharts-point highcharts-color-2"></rect><rect x="503" y="336" width="14" height="4" fill="rgb(1,70,245)" opacity="1" class="highcharts-point highcharts-color-2"></rect></g><g class="highcharts-markers highcharts-series-2 highcharts-column-series highcharts-color-2" data-z-index="0.1" opacity="1" transform="translate(78,10) scale(1 1)" clip-path="none"></g></g><text x="304" text-anchor="middle" class="highcharts-title" data-z-index="4" style="color:#333333;font-size:18px;fill:#333333;" y="24"></text><text x="304" text-anchor="middle" class="highcharts-subtitle" data-z-index="4" style="color:#666666;fill:#666666;" y="24"></text><text x="10" text-anchor="start" class="highcharts-caption" data-z-index="4" style="color:#666666;fill:#666666;" y="402"></text><g class="highcharts-axis-labels highcharts-xaxis-labels" data-z-index="7"><text x="155.85" style="color:#666666;cursor:default;font-size:11px;fill:#666666;" text-anchor="middle" transform="translate(0,0)" y="368" opacity="1">5</text><text x="242.35" style="color:#666666;cursor:default;font-size:11px;fill:#666666;" text-anchor="middle" transform="translate(0,0)" y="368" opacity="1">10</text><text x="328.85" style="color:#666666;cursor:default;font-size:11px;fill:#666666;" text-anchor="middle" transform="translate(0,0)" y="368" opacity="1">15</text><text x="415.35" style="color:#666666;cursor:default;font-size:11px;fill:#666666;" text-anchor="middle" transform="translate(0,0)" y="368" opacity="1">20</text><text x="501.85" style="color:#666666;cursor:default;font-size:11px;fill:#666666;" text-anchor="middle" transform="translate(0,0)" y="368" opacity="1">25</text><text x="588.35" style="color:#666666;cursor:default;font-size:11px;fill:#666666;" text-anchor="middle" transform="translate(0,0)" y="368" opacity="1">30</text></g><g class="highcharts-axis-labels highcharts-yaxis-labels" data-z-index="7"><text x="63" style="color:#666666;cursor:default;font-size:11px;fill:#666666;" text-anchor="end" transform="translate(0,0)" y="353" opacity="1">0</text><text x="63" style="color:#666666;cursor:default;font-size:11px;fill:#666666;" text-anchor="end" transform="translate(0,0)" y="280" opacity="1">200k</text><text x="63" style="color:#666666;cursor:default;font-size:11px;fill:#666666;" text-anchor="end" transform="translate(0,0)" y="206" opacity="1">400k</text><text x="63" style="color:#666666;cursor:default;font-size:11px;fill:#666666;" text-anchor="end" transform="translate(0,0)" y="132" opacity="1">600k</text><text x="63" style="color:#666666;cursor:default;font-size:11px;fill:#666666;" text-anchor="end" transform="translate(0,0)" y="59" opacity="1">800k</text></g><g class="highcharts-label highcharts-tooltip highcharts-color-0" style="white-space:nowrap;pointer-events:none;" data-z-index="8" transform="translate(363,-9999)" opacity="0" visibility="hidden"><path fill="none" class="highcharts-label-box highcharts-tooltip-box highcharts-shadow" d="M 3.5 0.5 L 216.5 0.5 C 219.5 0.5 219.5 0.5 219.5 3.5 L 219.5 133.5 C 219.5 136.5 219.5 136.5 216.5 136.5 L 3.5 136.5 C 0.5 136.5 0.5 136.5 0.5 133.5 L 0.5 3.5 C 0.5 0.5 0.5 0.5 3.5 0.5" stroke="#000000" stroke-opacity="0.049999999999999996" stroke-width="5" transform="translate(1, 1)"></path><path fill="none" class="highcharts-label-box highcharts-tooltip-box highcharts-shadow" d="M 3.5 0.5 L 216.5 0.5 C 219.5 0.5 219.5 0.5 219.5 3.5 L 219.5 133.5 C 219.5 136.5 219.5 136.5 216.5 136.5 L 3.5 136.5 C 0.5 136.5 0.5 136.5 0.5 133.5 L 0.5 3.5 C 0.5 0.5 0.5 0.5 3.5 0.5" stroke="#000000" stroke-opacity="0.09999999999999999" stroke-width="3" transform="translate(1, 1)"></path><path fill="none" class="highcharts-label-box highcharts-tooltip-box highcharts-shadow" d="M 3.5 0.5 L 216.5 0.5 C 219.5 0.5 219.5 0.5 219.5 3.5 L 219.5 133.5 C 219.5 136.5 219.5 136.5 216.5 136.5 L 3.5 136.5 C 0.5 136.5 0.5 136.5 0.5 133.5 L 0.5 3.5 C 0.5 0.5 0.5 0.5 3.5 0.5" stroke="#000000" stroke-opacity="0.15" stroke-width="1" transform="translate(1, 1)"></path><path fill="rgba(247,247,247,0.85)" class="highcharts-label-box highcharts-tooltip-box" d="M 3.5 0.5 L 216.5 0.5 C 219.5 0.5 219.5 0.5 219.5 3.5 L 219.5 133.5 C 219.5 136.5 219.5 136.5 216.5 136.5 L 3.5 136.5 C 0.5 136.5 0.5 136.5 0.5 133.5 L 0.5 3.5 C 0.5 0.5 0.5 0.5 3.5 0.5" stroke="#42BFC7" stroke-width="1"></path></g></svg>
